# xmcd
# Copyright (C) 1995-1998 Ti Kan
#
# Track frame offsets:
#       150
#       18126
#       32213
#       53487
#       69681
#       89705
#       110997
#       127390
#       141749
#       154866
#       166591
#
# Disc length: 2808 seconds
#
# Revision: 1
# Processed by: cddbd v1.5.2PL0 Copyright (c) Steve Scherf et al.
# Submitted via: CD-Import v1.0
#
DISCID=a20af60b
DTITLE=The Side Project - Our Own Weapon Of Mass Destruction
DYEAR=06
DGENRE=
TTITLE0=And The Winner Is
TTITLE1=Red Pig
TTITLE2=Rain Song
TTITLE3=Pron To Be Alive
TTITLE4=Nobody Likes The Loser
TTITLE5=Naked By The River
TTITLE6=Coffee And Candles
TTITLE7=Dear Mister Jesus
TTITLE8=Frenetik Team
TTITLE9=I Hate You
TTITLE10=Pimp My Dick
EXTD=
EXTT0=
EXTT1=
EXTT2=
EXTT3=
EXTT4=
EXTT5=
EXTT6=
EXTT7=
EXTT8=
EXTT9=
EXTT10=
PLAYORDER=
